<?xml version="1.0" encoding="UTF-8" standalone="no"?>
<!--part of the matt icon theme by sixsixfive released under CC0 (https://creativecommons.org/publicdomain/zero/1.0/) on openclipart-->
<svg xmlns="http://www.w3.org/2000/svg" xmlns:xlink="http://www.w3.org/1999/xlink" viewBox="0 0 128 128">
 <defs id="0">
  <linearGradient id="2">
   <stop id="D" stop-color="#888"/>
   <stop offset="1" id="E" stop-color="#494949"/>
  </linearGradient>
  <linearGradient id="3">
   <stop id="F"/>
   <stop offset="1" id="G" stop-opacity="0"/>
  </linearGradient>
  <linearGradient id="4">
   <stop id="H" stop-color="#eee"/>
   <stop offset="1" id="I" stop-color="#eee" stop-opacity="0"/>
  </linearGradient>
  <radialGradient xlink:href="#3" id="5" gradientUnits="userSpaceOnUse" gradientTransform="matrix(1,0,0,2.4630543e-2,0,117.42275)" cx="63.64" cy="120.39" r="61.81"/>
  <linearGradient xlink:href="#4" id="6" gradientUnits="userSpaceOnUse" y1="10.02" x2="0" y2="24.345"/>
  <linearGradient xlink:href="#2" id="7" y1="7.828" x2="0" y2="115.73" gradientUnits="userSpaceOnUse"/>
 </defs>
 <g id="1">
  <path id="8" d="M 125.44621,120.38797 A 61.809662,1.5224055 0 1 1 1.826889,120.38797 A 61.809662,1.5224055 0 1 1 125.44621,120.38797 z" transform="matrix(1.1724137,0,0,3.4,-10.608364,-288.64103)" opacity="0.527" fill="url(#5)" stroke-linejoin="round" stroke-linecap="square" stroke-width="5.31"/>
  <rect id="9" width="119.49" height="119.49" x="4.255" y="2.146" fill="#323232" stroke-linejoin="round" stroke-linecap="square" stroke-width="0.51" rx="3.773"/>
  <path id="A" d="M 116.125,7.8905017 C 80.800352,8.7403047 45.450367,7.5513748 10.125,8.3905017 C 10.771733,44.166945 9.6151724,79.962684 10.59375,115.73425 C 46.327953,115.10107 82.101017,116.32261 117.84375,115.2655 C 117.02651,79.539255 118.83255,43.130076 117.0625,7.8280017 C 116.74909,7.8288372 116.43516,7.81815 116.125,7.8905017 z" fill="url(#7)" stroke-linejoin="round" stroke-linecap="square" stroke-width="0.51"/>
  <path id="B" d="M 12.46875,12.8125 C 12.519378,115.54695 12.553582,13.265022 12.90625,115.5 C 116.09559,114.96811 12.779821,115.48264 115.46875,115.0625 C 115.77986,12.3293 115.83354,115.09778 115.28125,12.875 C 12.177301,12.653006 114.58031,12.583712 12.46875,12.8125 z" transform="translate(-9.9800104e-8,-2.1094983)" opacity="0.459" fill="none" stroke="url(#6)" stroke-linejoin="round" stroke-linecap="square" stroke-width="5.31"/>
  <path d="M 63.850701,15.929115 L 56.791188,46.257291 L 30.259366,29.941499 L 46.724453,56.388011 L 16.438932,63.618145 L 46.74578,70.677657 L 30.451316,97.209478 L 56.897828,80.765721 L 64.127962,111.05125 L 71.187474,80.744393 L 97.719295,97.017528 L 81.275538,70.592346 L 111.56107,63.362211 L 81.232883,56.302699 L 97.527345,29.749549 L 71.080835,46.214636 L 63.850701,15.929115 z" id="C" fill="#eee" stroke-linejoin="round" stroke-linecap="square" stroke-width="5.31"/>
 </g>
</svg>
