<?xml version="1.0" encoding="UTF-8" standalone="no"?>
<!--part of the matt icon theme by sixsixfive released under CC0 (https://creativecommons.org/publicdomain/zero/1.0/) on openclipart-->
<svg xmlns="http://www.w3.org/2000/svg" xmlns:xlink="http://www.w3.org/1999/xlink" viewBox="0 0 129.08 135.11">
 <defs id="0">
  <linearGradient id="3">
   <stop id="U"/>
   <stop offset="1" id="V" stop-opacity="0"/>
  </linearGradient>
  <linearGradient id="4">
   <stop id="W" stop-color="#fff"/>
   <stop offset="1" id="X" stop-color="#eee" stop-opacity="0"/>
  </linearGradient>
  <path d="M 483.63155,512.927 C 483.63155,629.50511 389.12633,724.01033 272.54822,724.01033 C 155.97011,724.01033 61.464888,629.50511 61.46489,512.927 C 61.464888,396.34889 155.97011,301.84367 272.54822,301.84367 C 389.12633,301.84367 483.63155,396.34889 483.63155,512.927 L 483.63155,512.927 z " id="5" opacity="0.454" color="#000" fill-rule="evenodd" fill="none"/>
  <clipPath id="6">
   <use xlink:href="#5" transform="matrix(-0.6152756,0.7883122,0.7883122,0.6152756,251.75262,240.65104)"/>
  </clipPath>
  <clipPath id="7">
   <use transform="matrix(-0.9907046,0.136031,0.136031,0.9907046,703.95039,218.22871)" id="Y" xlink:href="#5"/>
  </clipPath>
  <path d="M 483.63155,512.927 C 483.63155,629.50511 389.12633,724.01033 272.54822,724.01033 C 155.97011,724.01033 61.464888,629.50511 61.46489,512.927 C 61.464888,396.34889 155.97011,301.84367 272.54822,301.84367 C 389.12633,301.84367 483.63155,396.34889 483.63155,512.927 L 483.63155,512.927 z " id="8" opacity="0.454" color="#000" fill-rule="evenodd" fill="none"/>
  <clipPath id="9">
   <use xlink:href="#8" transform="matrix(0.1323787,0.9911992,0.9911992,-0.1323787,-62.707318,586.85436)"/>
  </clipPath>
  <clipPath id="A">
   <use transform="matrix(0.7943298,0.6074868,0.6074868,-0.7943298,-38.268362,1048.1286)" id="Z" xlink:href="#8"/>
  </clipPath>
  <path d="M 483.63155,512.927 C 483.63155,629.50511 389.12633,724.01033 272.54822,724.01033 C 155.97011,724.01033 61.464888,629.50511 61.46489,512.927 C 61.464888,396.34889 155.97011,301.84367 272.54822,301.84367 C 389.12633,301.84367 483.63155,396.34889 483.63155,512.927 L 483.63155,512.927 z " id="B" opacity="0.454" color="#000" fill-rule="evenodd" fill="none"/>
  <clipPath id="C">
   <use xlink:href="#B" transform="matrix(0.9902077,-0.1396022,-0.1396022,-0.9902077,309.55671,1358.6655)"/>
  </clipPath>
  <clipPath id="D">
   <use transform="matrix(0.6048863,-0.7963118,-0.7963118,-0.6048863,768.45503,1331.9214)" id="a" xlink:href="#B"/>
  </clipPath>
  <path d="M 483.63155,512.927 C 483.63155,629.50511 389.12633,724.01033 272.54822,724.01033 C 155.97011,724.01033 61.464888,629.50511 61.46489,512.927 C 61.464888,396.34889 155.97011,301.84367 272.54822,301.84367 C 389.12633,301.84367 483.63155,396.34889 483.63155,512.927 L 483.63155,512.927 z " id="E" opacity="0.454" color="#000" fill-rule="evenodd" fill="none"/>
  <clipPath id="F">
   <use xlink:href="#E" transform="matrix(-0.1289635,-0.9916494,-0.9916494,0.1289635,1075.0644,991.06551)"/>
  </clipPath>
  <clipPath id="G">
   <use transform="matrix(-0.7876974,-0.6160623,-0.6160623,0.7876974,1054.1097,533.7528)" id="b" xlink:href="#E"/>
  </clipPath>
  <filter x="-0.2" width="1.399" y="-0.213" height="1.425" id="H">
   <feGaussianBlur stdDeviation="21.1083" id="c"/>
  </filter>
  <filter x="-0.207" width="1.414" y="-0.215" height="1.43" id="I">
   <feGaussianBlur stdDeviation="21.1083" id="d"/>
  </filter>
  <filter x="-0.197" width="1.394" y="-0.214" height="1.427" id="J">
   <feGaussianBlur stdDeviation="21.1083" id="e"/>
  </filter>
  <filter x="-0.193" width="1.386" y="-0.199" height="1.398" id="K">
   <feGaussianBlur stdDeviation="21.1083" id="f"/>
  </filter>
  <filter x="-0.192" width="1.384" y="-0.212" height="1.423" id="L">
   <feGaussianBlur stdDeviation="21.1083" id="g"/>
  </filter>
  <filter x="-0.199" width="1.398" y="-0.19" height="1.38" id="M">
   <feGaussianBlur stdDeviation="21.1083" id="h"/>
  </filter>
  <filter x="-0.211" width="1.422" y="-0.185" height="1.37" id="N">
   <feGaussianBlur stdDeviation="21.1083" id="i"/>
  </filter>
  <filter x="-0.176" width="1.353" y="-0.2" height="1.399" id="O">
   <feGaussianBlur stdDeviation="21.1083" id="j"/>
  </filter>
  <radialGradient xlink:href="#4" id="P" gradientUnits="userSpaceOnUse" gradientTransform="matrix(1.239126,0,0,0.9281612,-17.233812,3.1193747)" cx="72.07" cy="-21.557" r="61.988"/>
  <radialGradient xlink:href="#3" id="Q" cx="68.4" cy="125.4" r="64.52" gradientTransform="matrix(1,0,0,6.0150374e-2,0,117.86008)" gradientUnits="userSpaceOnUse"/>
 </defs>
 <path id="1" d="M 132.92102,125.40313 A 64.520058,3.8809056 0 1 1 3.8809052,125.40313 A 64.520058,3.8809056 0 1 1 132.92102,125.40313 z" transform="matrix(0.9097744,0,0,2.1191313,2.3113418,-140.8049)" opacity="0.347" fill="url(#Q)" stroke-linejoin="round" stroke-linecap="round" stroke-width="2.84" stroke-dashoffset="30"/>
 <g id="2" transform="translate(-207.62845,-2.0003037)">
  <g transform="matrix(0,-1.8871214,1.8871205,0,-367.7516,743.18599)" id="R">
   <path id="k" clip-path="url(#G)" transform="matrix(-0.118647,-9.2794446e-2,-9.2794446e-2,0.118647,491.56689,296.32677)" d="M 726.375,767.625 C 701.97573,785.16237 400.1524,726.67234 520.22557,785.58991 C 580.28476,846.78083 610.36732,913.90957 662.03125,975.09375 C 720.69042,927.46048 755.31788,850.53004 748.96875,774.65625 C 741.73274,771.50494 734.57164,767.08966 726.375,767.625 z" fill-rule="evenodd" filter="url(#O)" fill="#0057ae"/>
   <path id="l" clip-path="url(#F)" transform="matrix(-1.942514e-2,-0.1493673,-0.1493673,1.942514e-2,485.88667,403.16726)" d="M 726.375,767.625 C 645.6699,769.02435 595.93494,792.59867 515.28277,795.20847 C 575.06624,857.26545 601.45754,908.87032 662.03125,975.09375 C 720.69042,927.46048 755.31788,850.53004 748.96875,774.65625 C 741.73274,771.50494 734.57164,767.08966 726.375,767.625 z" fill-rule="evenodd" filter="url(#N)" fill="#a02786"/>
   <path id="m" clip-path="url(#D)" transform="matrix(9.1111059e-2,-0.1199446,-0.1199446,-9.1111059e-2,406.71261,475.36418)" d="M 726.375,767.625 C 645.6699,769.02435 592.25452,801.18214 511.60235,803.79194 C 535.65003,833.39064 633.88465,946.49511 662.03125,975.09375 C 720.69042,927.46048 755.31788,850.53004 748.96875,774.65625 C 741.73274,771.50494 734.57164,767.08966 726.375,767.625 z" fill-rule="evenodd" filter="url(#M)" fill="#e20800"/>
   <path id="n" clip-path="url(#C)" transform="matrix(0.1491501,-2.1027595e-2,-2.1027595e-2,-0.1491501,299.36968,470.99376)" d="M 726.375,767.625 C 645.6699,769.02435 577.90361,797.44169 497.25144,800.05149 C 523.41817,827.79453 633.88465,946.49511 662.03125,975.09375 C 720.69042,927.46048 755.31788,850.53004 748.96875,774.65625 C 741.73274,771.50494 734.57164,767.08966 726.375,767.625 z" fill-rule="evenodd" filter="url(#L)" fill="#ff7e00"/>
   <path id="o" clip-path="url(#A)" transform="matrix(0.119646,9.150276e-2,9.150276e-2,-0.119646,225.64263,390.74547)" d="M 726.375,767.625 C 654.1926,777.35228 549.53049,776.38025 491.64622,791.42036 C 551.70541,852.61128 601.83564,914.03695 662.03125,975.09375 C 720.69042,927.46048 755.31788,850.53004 748.96875,774.65625 C 741.73274,771.50494 734.57164,767.08966 726.375,767.625 z" fill-rule="evenodd" filter="url(#K)" fill="#fd0"/>
   <path id="p" clip-path="url(#9)" transform="matrix(1.9939555e-2,0.1492995,0.1492995,-1.9939555e-2,230.60394,282.90319)" d="M 726.375,767.625 C 696.66661,779.73797 557.79335,770.10188 494.33215,781.18999 C 554.39134,842.38091 601.83564,914.03695 662.03125,975.09375 C 720.69042,927.46048 755.31788,850.53004 748.96875,774.65625 C 741.73274,771.50494 734.57164,767.08966 726.375,767.625 z" fill-rule="evenodd" filter="url(#J)" fill="#bff500"/>
   <path id="q" clip-path="url(#7)" transform="matrix(-0.149225,2.0489683e-2,2.0489683e-2,0.149225,417.54618,214.85051)" d="M 726.375,767.625 C 645.6699,769.02435 593.67281,774.54636 513.02064,777.15616 C 534.05024,798.03559 633.88465,946.49511 662.03125,975.09375 C 720.69042,927.46048 755.31788,850.53004 748.96875,774.65625 C 741.73274,771.50494 734.57164,767.08966 726.375,767.625 z" fill-rule="evenodd" filter="url(#I)" fill="#00c4cc"/>
   <path id="r" clip-path="url(#6)" transform="matrix(-9.2675934e-2,0.1187396,0.1187396,9.2675934e-2,311.72724,209.64384)" d="M 726.375,767.625 C 663.33402,775.42766 551.17576,765.319 502.80234,773.04462 C 554.98281,841.07867 601.83564,914.03695 662.03125,975.09375 C 720.69042,927.46048 755.31788,850.53004 748.96875,774.65625 C 741.73274,771.50494 734.57164,767.08966 726.375,767.625 z" fill-rule="evenodd" filter="url(#H)" fill="#37a42c"/>
  </g>
  <path transform="matrix(0.9184578,0,0,0.987589,203.0061,24.669365)" d="M 139.12013,43.422245 A 63.816574,59.349415 0 1 1 11.486984,43.422245 A 63.816574,59.349415 0 1 1 139.12013,43.422245 z" id="S" opacity="0.189" fill="none" stroke="#000" stroke-linejoin="round" stroke-linecap="round" stroke-width="2.913" stroke-dashoffset="30"/>
  <path transform="matrix(0.9184578,0,0,0.987589,203.0061,24.669365)" d="M 75.3125,-13.09375 C 41.524804,-13.09375 14.34375,12.338624 14.34375,43.4375 C 14.34375,74.536376 41.523114,99.9375 75.3125,99.9375 C 109.10189,99.9375 136.28125,74.536376 136.28125,43.4375 C 136.28125,12.338624 109.1002,-13.09375 75.3125,-13.09375 z" id="T" fill="none" stroke="url(#P)" stroke-linejoin="round" stroke-linecap="round" stroke-width="2.913" stroke-dashoffset="30"/>
 </g>
</svg>
