<?xml version="1.0" encoding="UTF-8" standalone="no"?>
<!--part of the matt icon theme by sixsixfive released under CC0 (https://creativecommons.org/publicdomain/zero/1.0/) on openclipart-->
<svg xmlns="http://www.w3.org/2000/svg" xmlns:xlink="http://www.w3.org/1999/xlink" viewBox="0 0 128 128">
 <defs id="0">
  <linearGradient id="A">
   <stop id="R" stop-color="#fff"/>
   <stop id="S" offset="1" stop-color="#fff" stop-opacity="0"/>
  </linearGradient>
  <linearGradient id="B">
   <stop id="T" stop-color="#323232"/>
   <stop offset="1" id="U" stop-color="#242424"/>
  </linearGradient>
  <linearGradient id="C">
   <stop id="V" stop-color="#eee"/>
   <stop offset="1" id="W" stop-color="#dadada"/>
  </linearGradient>
  <filter id="D">
   <feGaussianBlur stdDeviation="1.52063" id="X"/>
  </filter>
  <radialGradient xlink:href="#C" id="E" cx="86.54" cy="190.11" r="73.51" gradientTransform="matrix(2.5985833,-2.6816496,2.3059991,2.3091084,-574.91799,1.7790551)" gradientUnits="userSpaceOnUse"/>
  <linearGradient xlink:href="#B" id="F" y1="16.79" x2="0" y2="41.554" gradientUnits="userSpaceOnUse"/>
  <filter id="G" x="-0.039" width="1.077" y="-0.616" height="2.233">
   <feGaussianBlur stdDeviation="1.49667" id="Y"/>
  </filter>
  <radialGradient xlink:href="#A" id="H" gradientUnits="userSpaceOnUse" gradientTransform="matrix(0.23851728,-0.15735733,0.25340282,0.17721676,-2.2427436,90.024091)" cx="82.63" cy="193.09" r="73.51"/>
  <linearGradient xlink:href="#N" id="I" x1="87.28" y1="27.699" x2="49.39" y2="119.98" gradientUnits="userSpaceOnUse"/>
  <linearGradient xlink:href="#L" id="J" gradientUnits="userSpaceOnUse" gradientTransform="matrix(0.96714879,0,0,0.96714879,1.5886796,3.2231964)" x1="98.33" y1="14.793" x2="86.82" y2="25.1"/>
  <radialGradient xlink:href="#M" r="18.279" cy="22.254" cx="89.51" gradientTransform="matrix(1,0,0,0.97467889,0,0.43910718)" gradientUnits="userSpaceOnUse" id="K"/>
  <linearGradient id="L">
   <stop id="Z"/>
   <stop id="a" offset="1" stop-color="#ddd" stop-opacity="0"/>
  </linearGradient>
  <linearGradient id="M">
   <stop id="b"/>
   <stop id="c" offset="1" stop-opacity="0.536"/>
  </linearGradient>
  <linearGradient id="N">
   <stop id="d" stop-color="#323232"/>
   <stop id="e" offset="1" stop-color="#474747"/>
  </linearGradient>
  <linearGradient xlink:href="#L" id="O" gradientUnits="userSpaceOnUse" gradientTransform="matrix(0.96714879,0,0,0.96714879,75.218375,-2.1299818)" x1="98.33" y1="14.793" x2="86.82" y2="25.1"/>
  <linearGradient xlink:href="#N" id="P" gradientUnits="userSpaceOnUse" x1="87.28" y1="27.699" x2="49.39" y2="119.98" gradientTransform="translate(73.629695,-5.3531782)"/>
 </defs>
 <rect id="1" width="93.25" height="5.828" x="19.325" y="112.16" opacity="0.37" filter="url(#G)" rx="0.144"/>
 <rect id="2" width="91.92" height="102.73" x="20.15" y="13.594" fill="#bbb" rx="3.341"/>
 <path d="M 23.5 14.59375 C 22.190479 14.59375 21.15625 15.621452 21.15625 16.9375 L 21.15625 112.96875 C 21.15625 114.2848 22.183952 115.3125 23.5 115.3125 L 108.71875 115.3125 C 110.0348 115.3125 111.09375 114.27827 111.09375 112.96875 L 111.09375 16.9375 C 111.09375 15.627978 110.02827 14.59375 108.71875 14.59375 L 23.5 14.59375 z M 26.53125 16.78125 L 105.25 16.78125 C 107.27615 16.78125 108.90625 18.411347 108.90625 20.4375 L 108.90625 21.71875 L 108.90625 37.90625 L 108.90625 39.1875 C 108.90625 41.213653 107.27615 42.84375 105.25 42.84375 L 26.53125 42.84375 C 24.505097 42.84375 22.875 41.213653 22.875 39.1875 L 22.875 37.90625 L 22.875 21.71875 L 22.875 20.4375 C 22.875 18.411347 24.505097 16.78125 26.53125 16.78125 z " id="3" fill="#eee"/>
 <path d="m 21.59375,40.5 c -1.707981,0 -3.03125,1.420143 -3.03125,3.25 l 0,159.8125 c 0,0.53371 0.110928,1.03222 0.3125,1.46875 l 138.9375,0 c 0.205,-0.43614 0.34375,-0.93949 0.34375,-1.46875 l 0,-159.8125 c 0,-1.814606 -1.35452,-3.25 -3.0625,-3.25 l -133.5,0 z" id="4" transform="matrix(0.59012928,0,0,0.43092308,14.251655,25.936721)" fill="url(#E)" filter="url(#D)"/>
 <path id="5" d="m 26.994759,50.375257 c -1.007929,0 -1.788829,0.559377 -1.788829,1.280137 l 0,62.948236 c 0,0.21022 0.06546,0.40658 0.184415,0.57852 l 81.991085,0 c 0.12098,-0.17179 0.20286,-0.37005 0.20286,-0.57852 l 0,-62.948236 c 0,-0.714752 -0.79934,-1.280137 -1.80727,-1.280137 l -78.782261,0 z" fill="url(#H)"/>
 <g id="6" transform="matrix(0.5639713,0,0,0.5639713,43.38108,58.120535)" fill="#323232">
  <g id="Q" transform="matrix(0.968751,0,0,0.98751,1.250108,-0.250791)">
   <path id="f" d="m 54.962334,37.280594 17.137445,-10.26158 7.678476,14.834674 c 1.854703,8.105157 -8.309067,11.07953 -16.469762,10.596198 L 54.962334,37.280594 z" fill-rule="evenodd"/>
   <path id="g" d="m 51.067463,47.876791 -9.013855,15.950064 9.013855,16.173146 0.222557,-6.469256 8.234881,0 c 3.004618,0.260249 6.899489,-1.710269 8.346159,-4.573095 L 78.442863,49.549882 c -3.486837,3.457705 -7.970419,4.350012 -13.131295,4.350012 l -13.910257,0 -0.333848,-6.023103 z" fill-rule="evenodd"/>
   <path id="h" d="M 30.928372,28.211849 13.659051,18.174838 22.872119,4.2455192 c 6.169776,-5.5594355 13.697636,1.9035315 17.23712,9.2894908 l -9.180867,14.676839 z" fill-rule="evenodd"/>
   <path id="i" d="M 42.061814,26.481749 60.350049,26.63881 70.082475,10.889601 64.3314,13.834655 60.334303,6.6182881 c -1.231388,-2.7593195 -4.840762,-5.216 -8.040161,-5.094167 L 30.23359,1.680123 c 4.708574,1.3772547 7.66319,4.8731813 10.168207,9.395745 l 6.751847,12.189796 -5.09183,3.216085 z" fill-rule="evenodd"/>
   <path id="j" d="m 0.44400982,27.380869 5.35080488,4.101242 -5.03605383,9.464382 c -2.51803307,4.364131 1.80775293,8.61555 4.56391483,10.095348 2.7132807,1.456777 6.9245853,1.629975 10.8589973,1.577399 L 23.263621,41.26197 28.614426,44.101291 19.329208,27.22313 0.44400982,27.380869 z" fill-rule="evenodd"/>
   <path id="k" d="M 1.2308874,49.306704 12.719387,70.128368 c 2.308191,2.891896 6.662288,3.575438 11.173749,3.470275 l 12.118001,0 0,-19.717481 -22.976999,-0.157739 C 9.4669308,53.933737 4.7980948,53.197619 1.2308874,49.306704 z" fill-rule="evenodd"/>
  </g>
 </g>
 <rect id="7" width="86.05" height="24.764" x="22.874" y="16.79" fill="url(#F)" rx="3.657"/>
 <path d="M 22.875 37.90625 L 22.875 39.1875 C 22.875 41.213653 24.505097 42.84375 26.53125 42.84375 L 105.25 42.84375 C 107.27615 42.84375 108.90625 41.213653 108.90625 39.1875 L 108.90625 37.90625 C 108.90625 39.932403 107.27615 41.5625 105.25 41.5625 L 26.53125 41.5625 C 24.505097 41.5625 22.875 39.932403 22.875 37.90625 z " id="8" fill="#fff"/>
 <path d="M 22.875 39.1875 L 22.875 40 C 22.875 42.026153 24.505097 43.65625 26.53125 43.65625 L 105.25 43.65625 C 107.27615 43.65625 108.90625 42.026153 108.90625 40 L 108.90625 39.1875 C 108.90625 41.213653 107.27615 42.84375 105.25 42.84375 L 26.53125 42.84375 C 24.505097 42.84375 22.875 41.213653 22.875 39.1875 z " id="9" fill="#bbb"/>
</svg>
